<?xml version="1.0" encoding="UTF-8"?>
<!-- Generator: Adobe Illustrator 27.8.1, SVG Export Plug-In . SVG Version: 6.00 Build 0)  -->
<svg id="Camada_1" width="333.62" height="229.67" version="1.1" viewBox="0 0 333.62 229.67" xml:space="preserve" xmlns="http://www.w3.org/2000/svg">
<style id="style1" type="text/css">
	.st0{fill:#FFFFFF;}
</style>
<g id="g59" transform="matrix(.2906 0 0 .2906 -6.0071 -7.3659)">
	<path id="path1" class="st0" d="m494.7 502.7c-5.5 0-10.1 4.4-10.1 10 0 5.8 4.6 10.1 10.1 10.1 5.3 0 10-4.5 10-10.1-0.1-5.5-4.7-10-10-10z"/>
	<path id="path2" class="st0" d="m568.5 535.5c-0.7 0-3.8 0.3-4.5 0.3-1.7 0-8.3-0.6-10.7-0.6h-0.6-3.2c-0.1-2-0.3-5.5-0.3-6.6 0-8 4.4-10.8 8.7-10.8 1 0 8.6 0.8 9.3 1 1.8 0 3.4-1.3 3.4-3.4 0-4.1-5.2-12.7-10.3-12.7-1.3 0-1.8 0.6-4.1 2.8-1.3 0.1-5.8 1-6.7 1.3-10.8 3-13.2 11.4-13.2 16 0 2.1 0.7 11.5 0.8 13.4-0.4 0-0.6 0.1-0.9 0.1-0.4 0-0.6-0.1-1.1-0.5-0.4-0.4-1.1-0.7-2-0.7-2.4 0-3.5 0.7-5.2 4.1-2.8 4.1-3.4 4.8-3.4 7 0 2 0.4 4.6 4.8 4.6 2.1 0 3.2-0.3 7.7-1.8 0.3 39.2 0.3 43.6-0.3 44.6-0.1 0.4-1.4 2.3-1.5 2.5-0.6 0.8-1.3 2.3-1.3 3.5 0 4.4 4.8 11 8.7 11 2 0 3.5-1.3 4.2-2 2.5-2.5 2.5-4.6 2.5-10.1v-51c3.4 0.1 6 0.6 9 1.3 0.4 0.1 3.1 0.7 3.5 0.7 5.2 0 9.6-9 9.6-11.2 0.2-2.7-1.8-2.8-2.9-2.8z"/>
	<path id="path3" class="st0" d="m463.8 591.3c-0.7 0-1.3 0.1-3 0.7-2.3 0.8-7.2 2-10.5 2-1.3 0-1.8-0.1-6.5-0.8-2.1-0.3-16.3-2-20.4-2-4.8 0-7.9 0.6-11.7 1.1 0.8-16.3 0.8-34.6 1-64.1 0-2.8 0.8-18.3 0.8-19.4 0-2.8-1.8-6-5.5-6-6.6 0-14.6 10.1-14.6 14.2 0 2.1 0.8 2.8 3.4 4.6 2.1 1.4 2.2 2.8 2.4 5.6 0.6 7.2 0.8 22.1 0.8 29.4 0 5.1-0.6 26.4-1.1 35.1-3.8 2.8-6.9 8.9-6.9 12.1 0 3.5 2.7 6.7 6 6.7 1.5 0 3.2-0.7 3.7-1 3.5-2.1 9.6-5.9 18.3-5.9 7.5 0 15.3 2 22.4 5.1 3.7 1.7 6.5 1.8 7.6 1.8 10.8 0 16.4-14.8 16.4-16.6 0.1-1-1-2.6-2.6-2.6z"/>
	<path id="path4" class="st0" d="m653.1 577.1c-0.7 0-1 0.3-3.7 4.8-8.6 13.9-18.1 15.9-24.6 15.9-13.1 0-24.2-9.7-24.2-26.4 0-15.6 9.6-29.1 22.9-29.1 9.7 0 18.1 6.7 18.1 16.5 0 1-0.1 1.5-0.6 1.7-1.1 0.6-10.1 0.7-13.8 0.7-2 0-10.1 0-11.4-0.3-0.7-0.1-3.2-0.8-3.8-0.8-4.1 0-8.6 9-8.6 13.5 0 0.8 0 3.5 3.7 3.5 1.8 0 2.4-0.4 7.3-3.2 2-1.1 12.8-1.1 15.9-1.1 2.5 0 14.5 0.3 16.6 0.3 7.3 0 9.1-10.4 9.1-12 0-1.4-0.6-2.4-1.4-3.8-0.3-0.4-0.3-0.6-0.4-0.8-4.1-16.5-13.4-25.3-30.1-25.3-22.4 0-36.6 17-36.6 39.8 0 20.8 12 39.8 37.3 39.8 15.3 0 22.8-6.3 28.7-11.5 2.4-2.1 5.1-4.6 5.1-8.7 0.1-2.4-1.7-13.5-5.5-13.5z"/>
	<path id="path5" class="st0" d="m501.8 536.6c0-3.2-0.8-5.6-4.5-5.6-5.6 0-13.6 6.6-13.6 10.4 0 2.2 2 3.1 3.8 3.9 0.8 0.4 0.8 1.8 0.8 2.5 0 5.2 0.4 27.8 0.4 32.3 0 9.8-0.3 10.5-0.8 12-0.3 0.4-0.4 0.6-1.5 1.8-0.3 0.4-1 2-1 3.7 0 6 6 12.9 10.5 12.9 5.6 0 6-8 6-11 0-5.6-1-30.6-1-35.7 0.1-4.3 0.9-23.2 0.9-27.2z"/>
	<path id="path6" class="st0" d="m675.6 571.5c1.2-3.6 1.7-7.3 1.7-10.5 0-5.6-1.7-9.8-3.2-12.5-7.1-24.9-24.7-38.5-49.8-38.5-12.6 0-23.9 3.6-33.1 10.1 0.3-1.5 0.4-3 0.4-4.6 0-13.4-12.5-33.7-31.4-33.7-5.8 0-10.1 1.9-13.4 4.1-1.1 0.2-2.2 0.5-3 0.7-7.2 2-12.9 5.4-17.4 9.7l-3.6 3.6c-4.9-10.6-15.7-18.1-28.2-18.1-8.6 0-16.5 3.5-22.1 9.2l-10 10c-5.7 5.6-9.3 13.5-9.3 22.1 0 5.3 1.3 10.2 3.6 14.6-2.8 4.3-4.4 9.1-4.4 14.1 0 3.6 0.8 9.2 4.7 14.4 0 1.7 0.1 3.5 0.1 5.4-1 0.3-1.9 0.6-2.6 0.8l-0.4 0.1-0.2 0.1c-0.7 0.2-2.1 0.5-2.9 0.6-0.3 0-0.7-0.1-1.1-0.2l-2.5-0.4h-0.4c-0.1 0-6.6-0.8-13-1.5 0.2-9.7 0.2-20.8 0.3-34.3v-8.2c0-1.5 0.4-8.5 0.5-12.3 0.3-5.3 0.3-6.3 0.3-7.2 0-15.2-11.7-27.1-26.6-27.1-8.1 0-16 3.9-22.4 9.6l-10 10c-8.1 7.2-13.6 17.3-13.6 25.9 0 7.5 3 12.8 6.1 16.4 0.3 7 0.5 17.3 0.5 23.2 0 3.5-0.3 16.9-0.7 26.6-4.5 6.3-7.3 13.9-7.3 20.6 0 15.4 12.2 27.8 27.1 27.8 5.8 0 11.1-2 14.5-4l0.3-0.2c2.8-1.7 4.7-2.7 7.1-2.7 4 0 9 1.2 13.7 3.2 5.3 2.4 10.9 3.7 16.2 3.7 9.4 0 17-3.8 22.9-9.1l1.2-1.2c5.9 6.2 13.7 10.3 21.7 10.3 6.5 0 13.3-2.5 18.5-7.8l5.1-5.1c5.4 7.4 13.6 12.8 23.1 12.8 7.1 0 13.9-2.9 19.2-8.2 0.1-0.1 0.1-0.1 0.2-0.1 0.1-0.1 0.1-0.1 0.2-0.1 0.1-0.1 0.1-0.1 0.2-0.1 0.1-0.1 0.1-0.1 0.2-0.1 0.1-0.1 0.1-0.1 0.2-0.1 0.1-0.1 0.1-0.1 0.2-0.1 0.1-0.1 0.1-0.1 0.2-0.1 0.1-0.1 0.1-0.1 0.2-0.1 0.1-0.1 0.1-0.1 0.2-0.1 0.1-0.1 0.1-0.1 0.2-0.1 0.1-0.1 0.1-0.1 0.2-0.1 0.1-0.1 0.1-0.1 0.2-0.1 0.1-0.1 0.1-0.1 0.2-0.1 0.1-0.1 0.1-0.1 0.2-0.1 0.1-0.1 0.1-0.1 0.2-0.1 0.1-0.1 0.1-0.1 0.2-0.1 0.1-0.1 0.1-0.1 0.2-0.1 0.1-0.1 0.1-0.1 0.2-0.1 0.1-0.1 0.1-0.1 0.2-0.1 0.1-0.1 0.1-0.1 0.2-0.1 0.1-0.1 0.1-0.1 0.2-0.1 0.1-0.1 0.1-0.1 0.2-0.1 0.1-0.1 0.1-0.1 0.2-0.1 0.1-0.1 0.1-0.1 0.2-0.1 0.1-0.1 0.1-0.1 0.2-0.1 0.1-0.1 0.1-0.1 0.2-0.1 0.1-0.1 0.1-0.1 0.2-0.1 0.1-0.1 0.1-0.1 0.2-0.1 0.1-0.1 0.1-0.1 0.2-0.1 0.1-0.1 0.1-0.1 0.2-0.1 0.1-0.1 0.1-0.1 0.2-0.1 0.1-0.1 0.1-0.1 0.2-0.1 0.1-0.1 0.1-0.1 0.2-0.1 0.1-0.1 0.1-0.1 0.2-0.1 0.1-0.1 0.1-0.1 0.2-0.1 0.1-0.1 0.1-0.1 0.2-0.1 0.1-0.1 0.1-0.1 0.2-0.1 0.1-0.1 0.1-0.1 0.2-0.1 0.1-0.1 0.1-0.1 0.2-0.1 0.1-0.1 0.1-0.1 0.2-0.1 0.1-0.1 0.1-0.1 0.2-0.1 0.1-0.1 0.1-0.1 0.2-0.1 0.1-0.1 0.1-0.1 0.2-0.1 0.1-0.1 0.1-0.1 0.2-0.1 0.1-0.1 0.1-0.1 0.2-0.1 0.1-0.1 0.1-0.1 0.2-0.1 0.1-0.1 0.1-0.1 0.2-0.1 0.1-0.1 0.1-0.1 0.2-0.1 0.1-0.1 0.1-0.1 0.2-0.1 0.1-0.1 0.1-0.1 0.2-0.1 0.1-0.1 0.1-0.1 0.2-0.1 2-2 3.5-4.1 4.7-6.1 10.2 15.1 27.1 24.3 47.8 24.3 23.6 0 36-10.9 42.6-16.8 0.4-0.4 1-0.8 1.6-1.4l10-10c3.8-3.5 10.9-11.2 10.9-23.3 0.2-10.7-1.1-17.7-4-23.9zm-225.5 46.1c-2.4 0-6.1-0.4-10.4-2.4-6.5-2.9-13.5-4.5-19.5-4.5-6.5 0-11 2.7-14.3 4.7l-0.3 0.2c-1.6 1-4.5 2-7.3 2-7.2 0-13.1-6.2-13.1-13.8 0-4.8 3-11.1 7.1-15.4 0.5-9.8 0.9-27.7 0.9-31.9 0-7.5-0.3-22.1-0.8-28.8v-0.2-0.7c-2.7-2-5.7-4.5-5.7-9.9 0-7.6 10.9-21.2 21.7-21.2 7.8 0 12.5 6.6 12.5 13.1 0 0.5-0.1 1.8-0.3 6.5-0.2 4.5-0.6 11.3-0.6 12.9v8.2c-0.1 20.3-0.2 35-0.6 47.9 1.3-0.1 2.7-0.1 4.3-0.1 5 0 21.2 2 21.4 2l2.5 0.4c2.3 0.4 2.5 0.4 2.9 0.4 2.3 0 6.4-0.9 8.1-1.5h0.2c1.9-0.6 3.3-1.1 5.2-1.1 5.3 0 9.7 4.4 9.7 9.7-0.2 4.6-7.7 23.5-23.6 23.5zm54.7-91.1c2.4 2 4 5.2 4 10.1 0 2-0.2 7.5-0.4 13.3-0.2 5.6-0.4 11.9-0.4 14 0 2.4 0.2 9.7 0.5 16.8 0.3 8.2 0.5 15.9 0.5 18.9 0 13.3-6.8 18-13.1 18-8.5 0-17.6-10.3-17.6-20 0-3.2 1.2-6.1 2.2-7.6l0.6-0.8 0.4-0.5c0.1-1 0.2-3.4 0.2-8.6 0-2.2-0.1-8.5-0.2-15.1-0.1-5.8-0.2-11.7-0.2-15.2-2.3-1.6-4.7-4.2-4.7-8.6 0-5.2 4.3-10.4 9.6-13.7-5.2-2.9-8.7-8.5-8.7-14.9 0-9.4 7.7-17 17.2-17 9.2 0 17 7.8 17 17 0 5.7-2.7 10.7-6.9 13.9zm57.2 29.9c-1.3 0-3.9-0.6-5.1-0.9-0.1 0-0.2-0.1-0.3-0.1v43c0 6.1 0 10.5-4.6 15.1-1.5 1.5-4.7 4-9.2 4-8.3 0-15.7-10.1-15.7-18 0-3.2 1.5-6 2.4-7.4 0.1-0.2 0.3-0.5 0.5-0.7 0.1-0.1 0.2-0.3 0.3-0.4 0.2-3.1 0.1-14.3 0-33.2h-0.8c-7.2 0-11.8-4.6-11.8-11.7 0-4.3 1.5-6.5 4.2-10.5l0.1-0.2c1.5-3 3.7-5.9 7.6-7-0.2-2.4-0.3-4.7-0.3-5.7 0-8.2 4.8-19.1 18.3-22.8 0.9-0.3 3.4-0.8 5.4-1.1 2-1.9 4.1-3.2 7.4-3.2 10 0 17.3 12.9 17.3 19.7 0 5.8-4.6 10.4-10.4 10.4h-0.5l-0.7-0.1c-1-0.2-7.2-0.8-8.1-0.9-0.5 0-1.6 0-1.7 3.5 1.2 0.1 2.4 0.2 3.7 0.2 1.5 0.1 3.5 0.2 4 0.2 0.4 0 1.1-0.1 1.8-0.1 1.2-0.1 2.3-0.2 2.8-0.2 7 0 10.1 5 10.1 9.7-0.1 5.4-6.7 18.4-16.7 18.4zm96.3 47.9c-6 5.3-15.1 13.3-33.3 13.3-30.6 0-44.3-23.5-44.3-46.8 0-27.6 17.9-46.8 43.6-46.8 19.2 0 31.5 10 36.7 29.8 1 1.7 2.2 3.9 2.2 7.1 0 2.6-1 7.6-3.7 11.8 5.7 5.4 6.2 17.5 6.2 17.6 0.1 7.4-5 11.9-7.4 14z"/>
	<path id="path7" class="st0" d="m617.3 553.9c0.5 0 2.7 0.2 10.1 0.2 2 0 4.1 0 5.9-0.1-2-3.1-6-4.7-9.7-4.7-3.4 0-6.5 1.5-9.1 3.9 0.6 0.1 1.2 0.3 2 0.5 0.3 0.1 0.5 0.1 0.8 0.2z"/>
	<path id="path8" class="st0" d="m617.5 580.2-0.6 0.3c-2.6 1.5-4.3 2.4-5.9 3 3.3 5 8.6 7.3 13.9 7.3 4.4 0 11-1.2 17.6-10.9-1 0-2.1 0-3.1-0.1-3.7-0.1-7.5-0.1-8.8-0.1-9-0.1-12.1 0.3-13.1 0.5z"/>
	<path id="path9" class="st0" d="m1013.2 535.1c-1.4 0-13.8 0.6-16.4 0.6v-23.2c0-0.6 0.4-3.1 0.4-3.7 0-3-3.2-6-6.3-6-4.2 0-10.1 8.3-10.1 11.1 0 2.1 1.8 3.2 3.5 4.2 0.3 0.1 0.4 0.6 0.4 1v17.3h-4.5c-0.7 0-3.4-1.3-3.9-1.3-3.1 0-6.2 5.9-6.2 9.8 0 1.8 1.1 5.6 4.4 5.6 1 0 5.1-1.4 5.9-1.7 1.3-0.3 2.3-0.3 4.2-0.4 0 7.7 0 42.2 0.1 45.8 0.3 11.1 7 16.3 14.3 16.3 0.8 0 14.2 0 14.2-8.9v-3.7c0-2-1.3-3.9-2.8-3.9-0.7 0-3.4 1.3-4.9 2.1-1.4 0.7-2.8 1.1-4.2 1.1-3.1 0-4.5-3.1-4.5-6.6v-43.4c4.5 0.1 7.5 0.1 9.6 0.1 3.6 0 4.4-0.1 5-0.4 2-0.8 2.4-2.4 3.8-5.8 0.6-1.5 1.7-3.7 1.7-4.1 0-1.9-2.8-1.9-3.7-1.9z"/>
	<path id="path10" class="st0" d="m950.8 535.1c-1.4 0-13.8 0.6-16.4 0.6v-23.2c0-0.6 0.4-3.1 0.4-3.7 0-3-3.2-6-6.3-6-4.2 0-10.1 8.3-10.1 11.1 0 2.1 1.8 3.2 3.5 4.2 0.3 0.1 0.4 0.6 0.4 1v17.3h-4.5c-0.7 0-3.4-1.3-3.9-1.3-3.1 0-6.2 5.9-6.2 9.8 0 1.8 1.1 5.6 4.4 5.6 1 0 5.1-1.4 5.9-1.7 1.3-0.3 2.2-0.3 4.2-0.4 0 7.7 0 42.2 0.1 45.8 0.3 11.1 7 16.3 14.3 16.3 0.8 0 14.2 0 14.2-8.9v-3.7c0-2-1.3-3.9-2.8-3.9-0.7 0-3.4 1.3-4.9 2.1-1.4 0.7-2.8 1.1-4.2 1.1-3.1 0-4.5-3.1-4.5-6.6v-43.4c4.5 0.1 7.5 0.1 9.6 0.1 3.6 0 4.4-0.1 5-0.4 2-0.8 2.4-2.4 3.8-5.8 0.6-1.5 1.7-3.7 1.7-4.1 0-1.9-2.8-1.9-3.7-1.9z"/>
	<path id="path11" class="st0" d="m759.8 565.9c-5.4 0-7.6 0.2-11 0.5v19.2c2.4-0.1 4.6-0.2 6.7-0.2 1.5 0 4.8 0.2 10.1 0.5 4.1 0.2 8.7 0.5 10.1 0.5 4 0 7.2 0 7.2-9.4 0.1-3.9 0.1-11.1-23.1-11.1z"/>
	<path id="path12" class="st0" d="m861.2 533.7c-2.7 0-3.7 1-4.8 2-1.5-2.8-3.9-4.6-7.2-4.6-2.4 0-4.6 1.3-4.6 2.5 0 0.1 0.1 1.3 0.3 1.4-1 0.6-5.1 2.5-5.9 3-7.3 4.1-19 14.6-19 34.9 0 21.9 13.8 37.8 35.4 37.8 24.2 0 34.9-19.5 34.9-39.5 0-30.4-23.2-37.5-29.1-37.5zm-6 63.7c-12.8 0-21.9-10.1-21.9-24.9 0-20.8 14.5-25.4 21.4-27.3 0.7-0.1 0.7-0.3 1.4-0.7 1.1 2.1 2.1 2.5 4.5 2.8 14.5 2 16.7 14.9 16.7 23.8 0 16.1-8.9 26.3-22.1 26.3z"/>
	<path id="path13" class="st0" d="m787 552.5c11.4-7.2 12.2-18.3 12.2-22.8 0-19.8-15.7-25.9-31.9-25.9h-21.9c-1.7 0-8.9-1.1-10.4-1.1-4.6 0-9.7 6-9.7 10.1 0 2.5 0.8 3.2 2.5 4.5 1.5 1 1.5 2.5 1.5 6.3 0 11.5-0.4 62.7-0.4 73.1-2.7 1.8-3.7 4.9-3.7 6.7 0 3.1 2.8 7 7.5 7 2.5 0 3.2-0.3 7.3-2.1 4.6-2 14.5-2.8 16.3-2.8 2.4 0 12.2 1.7 14.5 2 1.7 0.1 5.1 0.4 7.7 0.4 18.3 0 26-14.2 26-28.8 0.1-12.8-5.3-20.6-17.5-26.6zm-45-21.4c0-3 0.4-11.2 0.6-14.8 4.4-0.1 12.8-0.4 14.6-0.4 17.2 0 28.4 1.3 28.4 14.8 0 3.1-0.8 8.6-5.1 11.8-3.2 2.5-10 4.4-13.1 4.4-0.7 0-11.8-0.8-14.1-0.8-6.7 0-9.3 0.4-11.4 1 0.2-3 0.1-4.4 0.1-16zm33.9 62.3c-3.2 0-17.3-1-20.2-1-4.5 0-9.3 0.3-13.8 0.7v-33.3c1.7 0 3.8-0.1 4.6-0.3 4.5-0.4 6.7-0.7 13.4-0.7 23.2 0 30.2 7.2 30.2 18.1 0 14-7.1 16.5-14.2 16.5z"/>
	<path id="path14" class="st0" d="m1053 544.6c0-5.6 0.6-30.1 0.6-35 0-2.1 0-6.9-5.5-6.9-7 0-13.5 9.7-13.5 13.2 0 1.5 0.4 1.8 3.4 4.2 0.7 0.6 1.4 1.3 1.5 2.2 0.1 0.8 1.4 16.9 1.4 33.3 0 5.1-0.4 31.4-1.4 34.4-1.5 3.2-2.2 4.8-2.2 7.5 0 7 5.8 12.9 9.6 12.9 7 0 7-8.9 7-11.3 0-3.7-0.6-19.4-0.6-22.6-0.3-10.5-0.3-21.3-0.3-31.9z"/>
	<path id="path15" class="st0" d="m753.4 539c1.6 0 5.6 0.3 10.7 0.6 1.8 0.1 3.2 0.2 3.4 0.2 1.8 0 7-1.5 8.8-2.9 1.7-1.3 2.3-4.2 2.3-6.2 0-5.1-1-7.7-21.4-7.7-1 0-4.4 0.1-7.9 0.2-0.1 3.1-0.3 6.4-0.3 7.9v7.9h4.4z"/>
	<path id="path16" class="st0" d="m1107 580.2-0.6 0.3c-2.6 1.5-4.3 2.4-5.9 3 3.3 5 8.6 7.3 13.9 7.3 4.4 0 11-1.2 17.6-10.9-1 0-2.1 0-3.1-0.1-3.7-0.1-7.5-0.1-8.8-0.1-9.1-0.1-12.2 0.3-13.1 0.5z"/>
	<path id="path17" class="st0" d="m1165 571.5c1.2-3.6 1.7-7.3 1.7-10.5 0-5.6-1.7-9.8-3.2-12.5-7.1-24.9-24.7-38.5-49.8-38.5-14.7 0-27.6 5-37.5 13.6l-1.6 1.6c-0.1 0-0.1 0.1-0.2 0.2 0.1-7.1 0.2-13.1 0.2-15.6 0-19.2-13.8-28-26.6-28-8.8 0-16.6 4-22.5 9.6l-8.6 8.6s-0.1 0-0.1 0.1c-3.9-10.4-14.1-18.1-25.8-18.1-7.8 0-14.8 3.8-20.1 9.1l-10 10c-1.7 1.7-3.3 3.5-4.7 5.5-1.5-13.5-13.4-24.3-27.3-24.3-7.8 0-14.8 3.8-20.1 9.1l-10 10c-6.2 6-10.3 14.1-11.1 20.8-9.2-6.1-18.9-8.7-25.5-8.8-3.7-1.7-7.8-2.7-12.1-2.7-7.7 0-14.5 3-19.2 7.7l-2.8 2.8c-1.9 1.1-4.4 2.8-7.1 5.1-2-26.1-22.2-42.7-52.8-42.7h-22.2c-0.9-0.1-2.1-0.3-3.3-0.4-3.7-0.5-5.7-0.7-7.7-0.7-7.9 0-15.6 3.8-21.4 9.6l-10 10c-5.8 5.8-9.6 13.7-9.6 21.8 0 6.2 1.8 10.9 4.1 14.3 0 7.5-0.1 21.2-0.2 34.6-0.1 10.6-0.1 20.8-0.2 27.8-2.4 4.3-3.7 9.1-3.7 14 0 15.5 12.8 28.1 28.5 28.1 6.8 0 10.9-1.7 15.4-3.7 1.7-0.5 5.7-1 8-1.2 1.8 0.2 6 0.8 7.8 1.1 1.9 0.3 3.5 0.5 4.3 0.6l0.4 0.1h0.4c2.9 0.2 6.3 0.5 9.5 0.5 12.2 0 22.8-4 30.9-11l4.4-4.4c10.1 11.1 24.6 17.8 41.5 17.8 14.5 0 27.1-4.8 36.6-13.3l10-10c0.3-0.3 0.6-0.6 1-0.9 5.3 15.8 19.4 24 33.2 24 11.7 0 21.4-3.9 27.7-10.5l5.4-5.4c6.8 10.4 18.1 15.7 29.2 15.7 11.2 0 20.6-3.6 26.9-9.7 5.6 5.9 13 9.7 20.9 9.7 6.8 0 13.8-2.6 19.2-7.9l7.6-7.6s0.1-0.1 0.2-0.1c10.2 9.8 24.1 15.5 40.4 15.5 23.6 0 36-10.9 42.6-16.8 0.4-0.4 1-0.8 1.6-1.4l10-10c3.8-3.5 10.9-11.2 10.9-23.3 0.8-5.8-0.5-12.8-3.5-19zm-386.5 43.6c-3 0-6.6-0.3-8.3-0.4h-0.2c-0.7-0.1-2.1-0.3-3.9-0.6-2.5-0.4-8.4-1.3-9.7-1.3-1.7 0-10.3 0.9-13.4 2.2-4.2 1.9-6.1 2.7-10.2 2.7-8.7 0-14.5-7.3-14.5-14.1 0-2.8 1-6.6 3.7-9.8 0-6.6 0.1-19 0.2-32 0.1-15.8 0.2-32.2 0.2-38.1v-1.7c-2.1-1.8-4.1-4.4-4.1-9.1 0-7.6 7.9-17.2 16.7-17.2 1.1 0 2.9 0.2 5.9 0.6 1.5 0.2 3.9 0.5 4.5 0.5h21.9c24.4 0 38.9 12.3 38.9 32.9 0 8.4-2.6 15.9-7.5 21.8 8.8 6.8 12.9 15.6 12.9 27.7 0 17.9-10.2 35.9-33.1 35.9zm77 2.5c-25 0-42.5-18.4-42.5-44.9 0-26.4 17.3-38.1 22.6-41l0.2-0.2 1.2-0.6c0.3-0.1 0.6-0.3 1.1-0.5 1.6-4.1 6.4-6.5 11.1-6.5 3.3 0 6.3 1 8.8 3 0.9-0.2 1.9-0.3 3.1-0.3 11.3 0 36.1 11.2 36.1 44.4 0.2 23.2-12.8 46.6-41.7 46.6zm104.7-75.7c-0.3 0.6-0.6 1.2-0.8 1.8l-0.2 0.4-0.4 1c-1.3 3.1-2.7 6.6-7.1 8.5-2 0.9-3.8 0.9-7.8 0.9h-2.6v34.8c4.2-2.1 5.9-2.1 6.6-2.1 5.4 0 9.8 4.9 9.8 11v3.7c0 9.5-8.5 15.9-21.2 15.9-10 0-21-7.2-21.4-23.1-0.1-2.2-0.1-14.8-0.1-37.4-1.3 0.3-2.3 0.5-3.1 0.5-7.1 0-11.4-6.4-11.4-12.7 0-6.9 5.1-16.9 13.2-16.9 0.5 0 1 0 1.4 0.1v-6.3c-2-1.7-3.9-4.3-3.9-8.2 0-6.5 8.6-18.1 17.2-18.1 7 0 13.4 6.2 13.4 13.1 0 0.7-0.1 1.5-0.3 2.8-0.1 0.4-0.1 0.8-0.1 1.1v15.7c1.1 0 2.1-0.1 3.1-0.1 4-0.2 5.7-0.2 6.3-0.2 8.4 0 10.7 5.7 10.7 9.1 0 1.7-0.6 3-1.3 4.7zm62.4 0c-0.3 0.6-0.6 1.2-0.8 1.8l-0.2 0.4-0.4 1c-1.3 3.1-2.7 6.6-7.1 8.5-2 0.9-3.8 0.9-7.8 0.9h-2.6v34.8c4.2-2.1 5.9-2.1 6.6-2.1 5.4 0 9.8 4.9 9.8 11v3.7c0 9.5-8.5 15.9-21.2 15.9-10 0-21-7.2-21.4-23.1-0.1-2.2-0.1-14.8-0.1-37.4-1.3 0.3-2.3 0.5-3.1 0.5-7.1 0-11.4-6.4-11.4-12.7 0-6.9 5.1-16.9 13.2-16.9 0.5 0 1 0 1.4 0.1v-6.3c-2-1.7-3.9-4.3-3.9-8.2 0-6.5 8.6-18.1 17.2-18.1 7 0 13.4 6.2 13.4 13.1 0 0.7-0.1 1.5-0.3 2.8-0.1 0.4-0.1 0.8-0.1 1.1v15.7c1.1 0 2.1-0.1 3.1-0.1 4-0.2 5.7-0.2 6.3-0.2 8.4 0 10.7 5.7 10.7 9.1 0 1.7-0.6 3-1.3 4.7zm24.3 75.7c-8.4 0-16.6-9.9-16.6-20 0-4 1.1-6.6 2.6-9.7 0.6-4.4 1.1-24.9 1.1-32.2 0-13.6-0.9-26.4-1.2-30.8-2.8-2.3-5.1-4.4-5.1-9 0-6.8 8.9-20.2 20.5-20.2 2.1 0 12.5 0.7 12.5 13.9 0 2.4-0.1 9.3-0.3 16.6-0.1 7.6-0.3 15.5-0.3 18.4 0 10.5 0 21.3 0.3 31.9v0.2c0 1.5 0.1 6.1 0.3 10.5 0.2 5.2 0.3 10.1 0.3 12.1-0.1 17-10.9 18.3-14.1 18.3zm100.9-13.3c-6 5.3-15.1 13.3-33.3 13.3-30.6 0-44.3-23.5-44.3-46.8 0-27.6 17.9-46.8 43.6-46.8 19.2 0 31.5 10 36.7 29.8 1 1.7 2.2 3.9 2.2 7.1 0 2.6-1 7.6-3.7 11.8 5.7 5.4 6.2 17.5 6.2 17.6 0.1 7.4-5 11.9-7.4 14z"/>
	<path id="path18" class="st0" d="m1106.8 553.9c0.5 0 2.7 0.2 10.1 0.2 2 0 4.1 0 5.9-0.1-2-3.1-6-4.7-9.7-4.7-3.4 0-6.5 1.5-9.1 3.9 0.6 0.1 1.2 0.3 2 0.5 0.3 0.1 0.5 0.1 0.8 0.2z"/>
	<path id="path19" class="st0" d="m1142.6 577.1c-0.7 0-1 0.3-3.7 4.8-8.6 13.9-18.1 15.9-24.6 15.9-13.1 0-24.2-9.7-24.2-26.4 0-15.6 9.6-29.1 22.9-29.1 9.7 0 18.1 6.7 18.1 16.5 0 1-0.1 1.5-0.6 1.7-1.1 0.6-10.1 0.7-13.8 0.7-2 0-10.1 0-11.4-0.3-0.7-0.1-3.2-0.8-3.8-0.8-4.1 0-8.6 9-8.6 13.5 0 0.8 0 3.5 3.7 3.5 1.8 0 2.4-0.4 7.3-3.2 2-1.1 12.8-1.1 15.9-1.1 2.5 0 14.5 0.3 16.6 0.3 7.3 0 9.1-10.4 9.1-12 0-1.4-0.6-2.4-1.4-3.8-0.3-0.4-0.3-0.6-0.4-0.8-4.1-16.5-13.4-25.3-30.1-25.3-22.4 0-36.6 17-36.6 39.8 0 20.8 12 39.8 37.3 39.8 15.3 0 22.8-6.3 28.7-11.5 2.4-2.1 5.1-4.6 5.1-8.7 0.1-2.4-1.7-13.5-5.5-13.5z"/>
	<path id="path20" class="st0" d="m859.7 554.3c-1.9-0.2-3.7-0.6-5.5-1.7-7.5 2.4-13.9 6.9-13.9 19.8 0 10.7 6 17.9 14.9 17.9 9.4 0 15-7.2 15-19.3 0-15.3-7.4-16.3-10.5-16.7z"/>
	<path id="path21" class="st0" d="m273.2 799.4c-1.8 2.6-4.4 4.6-7.2 5.8-5.7 2.5-12.3 2.7-18.6 2.3h-0.3c-13.3 0.2-26.9-0.6-40-2.4-6.5-0.9-13-2.1-19.1-3.9-6-1.8-11.9-4.2-15.8-7.5-1.9-1.7-3.1-3.3-3.7-5.1-0.5-1.8-0.7-3.8-0.3-5.6s1.3-3.5 2.6-4.7l0.5-0.5c0.2-0.2-0.3 0.5 1.2-1.4 0.4-0.6 1-1.7 1-1.9 0.1-0.3 0.3-0.7 0.4-1 0.2-0.8 0.3-1.1 0.3-1.5 0.1-0.4 0.1-0.8 0.1-1 0.1-2 0-3-0.1-4.1-0.2-2.1-0.5-3.9-0.7-5.7-2.3-14.1-5.4-27.2-8.4-40.6-12.7-53.1-26.3-105.6-40-158.1-6.7-26.2-13.6-52.4-19.8-78.6-3.1-13.1-6.2-26.1-8.6-38.9-1.2-6.3-2.3-12.9-2.7-18-0.1-1.6 0-5.7-0.1-8.9v-9.8c0.1-12.8 0.9-23.8 4.1-34.9 3.1-11.2 8.5-22.5 15.1-33.7s14.4-22.2 22.7-32.7c2.1-2.7 4.2-5.3 6.3-7.9l3.4-4.1c1.1-1.4 2.2-2.9 3.3-4.4 2.1-3 3.9-6.2 5.4-9.5 0.7-1.6 1.7-3.7 1.9-6.1 0.1-2.4-0.4-4.4-1.2-6.2-0.4-1-1.4-1.7-2.5-1.6-1.5 0-2.7 1.2-2.6 2.7v0.1c0 1.6-0.1 3-0.4 3.9-0.4 1-1 2-1.9 3.2-1.9 2.6-3.9 5-6.2 7.2-1.1 1.1-2.3 2.2-3.5 3.2l-3.8 3.2-8 6.6c-10.6 8.9-21 18.2-30.8 28.6s-19.1 22.2-25.6 36.5c-3.3 7.1-5.7 14.8-7.3 22.4-1.5 7.7-2.3 15.3-2.5 22.5-0.2 3.6-0.2 7.1-0.2 10.6 0.1 3.6-0.2 6.3 0.2 11.5 0.8 8.4 2.2 15.2 3.6 22.2 2.9 13.8 6.2 27.1 9.7 40.4 7.1 26.5 14.6 52.7 22.5 78.7 7.8 26.1 15.9 52 24.1 77.9 8.3 25.9 16.6 51.7 24.6 77.5 4 12.8 8.2 25.9 11.4 38.4 0.3 1.4 0.6 2.7 0.9 3.9-2.5 3.6-4.1 7.7-4.6 11.9-0.6 4.9 0.2 9.9 2.3 14.3 2.2 4.4 5.6 8 9.1 10.4 7.1 4.8 14.4 6.7 21.5 8.2 7.1 1.4 14.1 2 21.1 2.3 14 0.6 27.7-0.3 41.4-2h-0.3c6.9-0.5 14.1-1.8 20.2-5.7 3-2 5.6-4.7 7.1-7.9s1.9-6.8 1.3-10.1c0.4 3.8-0.7 7-2.5 9.6zm-114-33.8-0.5 0.5c1.1-1.1 0.5-0.4 0.5-0.5z"/>
	<path id="path22" class="st0" d="m317.4 350.8c0.6 3.1 1.2 6.3 1.7 9.7 1.6 10.1 2.8 20.7 3.5 32.4 1.2 20.2 0.5 41.5-2 63.3-2.3 19.6-6.4 40-12.3 60.6-2.7 9.7-4.9 17.5-6.8 24.6-1.5 5.7-6.5 9.5-12.3 9.5-3.7 0-7.1-1.5-9.6-4.2-2.4-2.7-3.6-6.2-3.2-9.9 0.7-7.3 1.5-15.4 2.3-25.3l0.6-7 0.2-6.8c0.1-5.6 0.1-10 0-14.1-0.2-9.4-0.8-18.7-1.8-27.8-1.9-18-5.6-35.9-10.9-53.2-1.7-5.5-3.4-10.5-5.2-15.3l-15.4-31.2c-1.4-2.8-2.3-5.7-3-8.7-42.2-0.9-93.7-0.8-124.1 3.6-5 9.3-8.5 17.6-10.6 25.3-3.1 10.8-3.6 21.8-3.7 32v9.7 3.5 4.8c0.3 5 1.6 12 2.5 16.8 2.4 12.3 5.3 24.7 8.5 38.5 5 20.9 10.5 42.3 15.8 62.9 1.3 5.2 2.7 10.3 4 15.4 14.5 55.8 27.6 106.2 40 158.4l1 4.6c2.6 11.7 5.3 23.8 7.5 36.7 0.3 1.9 0.6 4 0.8 6.3v0.7c0.1 1.1 0.2 2.6 0.1 4.8 0 0.8-0.2 1.8-0.2 2.2v0.2c-0.1 0.6-0.2 1.3-0.6 2.6-0.2 0.7-0.4 1.3-0.7 2-0.6 1.7-1.6 3.3-2.3 4.2 5.4 6.4 15.1 11.5 35.1 11.5 0 0 42.9 7 49.9-36.6s83.7-298.8 83.7-348c0-41.1-21.7-55.2-32.5-58.7z"/>
	<path id="path23" class="st0" d="m289.9 505.1v0.1l-0.6 7.2c-0.7 8.5-1.5 17-2.3 25.4-0.3 2.8 3.7 3.5 4.5 0.8 2.2-8.3 4.5-16.5 6.9-24.7 5.5-19 9.7-38.8 12-59 2.3-20.1 3.2-40.7 1.9-61.5-0.7-10.4-1.7-20.8-3.4-31.4-0.8-5.3-1.8-10.5-3.1-15.9-0.6-2.7-1.3-5.3-2-8.1l-1.2-4.2-0.7-2.2c-0.3-0.8-0.4-1.4-1-2.6-6.2-12.5-21.3-17.6-33.8-11.4s-17.6 21.3-11.4 33.8c0-0.2 0.4 0.4 0.6 0.7l0.8 1.2 1.6 2.6c1 1.8 2.1 3.7 3.1 5.7 2 3.9 3.9 7.9 5.7 12.1 3.7 8.3 6.8 16.9 9.5 25.8 5.4 17.7 9.3 36.3 11.3 55.2 1 9.5 1.7 19 1.9 28.6 0.1 4.8 0.1 9.7 0 14.4z"/>
	<path id="path24" class="st0" d="m258.6 238.9c-3.9 2.1-8.4 3.9-13 5.5-9.3 3.2-19.3 5.5-29.8 8.6 5.2 1.8 10.6 2.6 16 3.1 5.4 0.4 10.9 0.3 16.4-0.5s11-2.3 16.4-4.8c1.3-0.7 2.7-1.3 4-2.1l3.7-2.4c1.7-1.3 3.6-2.5 4.9-2.9 0.4-0.2 0.7-0.3 0.9-0.3s0.5-0.2 0.5-0.1c0 0 0.2-0.1 0-0.1v-0.1c0.1-0.3 1.1 1 1.5 2.8 0.5 1.8 0.7 4 0.6 5.9v0.7l-0.1 0.5c0 0.3-0.2 0.8-0.3 1.1-0.3 0.8-0.7 1.8-1.2 2.8-2.1 3.9-5.3 7.7-8.9 11.1-3.6 3.5-7.7 6.6-12.3 9.3 5.4-0.3 10.7-1.9 15.7-4.4 2.5-1.2 4.9-2.7 7.2-4.4s4.5-3.6 6.4-6c1-1.2 1.9-2.5 2.7-4 0.4-0.8 0.8-1.5 1.1-2.5l0.4-1.4 0.3-1.2c0.6-3.2 0.7-6.3 0.3-9.7-0.1-0.8-0.3-1.7-0.5-2.6l-0.9-2.7c-0.9-1.8-2-3.9-4.1-5.5-0.5-0.4-1.1-0.8-1.6-1.1-0.6-0.3-1.2-0.6-1.9-0.8-1.3-0.6-2.5-0.7-3.8-0.8-1.3-0.2-2.3 0.1-3.4 0.2s-2 0.4-2.9 0.7c-3.6 1.2-6.1 3-8.7 4.7l-2.8 1.9c-0.8 0.5-1.9 0.9-2.8 1.5z"/>
	<path id="path25" class="st0" d="m165.4 236.5c-0.3-0.4-0.6-0.9-0.8-1.3-0.5-0.9-0.8-1.9-1-3-0.1-0.4-0.1-1.6-0.2-2.5l-0.3-2.8c-0.2-1.9-0.5-3.7-0.9-5.6-0.7-3.7-1.8-7.4-3.5-11.1-1.7 3.7-2.7 7.4-3.5 11.1-0.4 1.9-0.6 3.7-0.9 5.6l-0.3 2.8c-0.1 1-0.1 1.6-0.1 3.1 0.1 2.6 0.9 5.2 2.4 7.5 0.8 1.1 1.7 2.1 2.7 2.9 1.1 0.9 1.9 1.2 2.9 1.7 3.9 1.8 8.3 2.6 12.5 1.1-3-3.2-5.5-5.5-7.7-7.9-0.3-0.5-1-1.3-1.3-1.6z"/>
	<path id="path26" class="st0" d="m274.3 225.3c1-0.5 1.8-0.9 2.9-1.7s2-1.8 2.7-2.9c1.5-2.2 2.3-4.9 2.4-7.5 0-1.5-0.1-2.1-0.1-3.1l-0.3-2.8c-0.2-1.9-0.5-3.7-0.9-5.6-0.7-3.7-1.8-7.4-3.5-11.1-1.7 3.7-2.7 7.4-3.5 11.1-0.4 1.9-0.6 3.7-0.9 5.6l-0.3 2.8c-0.1 0.8-0.1 2.1-0.2 2.5-0.1 1.1-0.5 2.1-1 3-0.2 0.5-0.5 0.9-0.8 1.3s-1 1.1-1.5 1.7c-2.2 2.4-4.7 4.7-7.7 7.9 4.4 1.3 8.9 0.6 12.7-1.2z"/>
	<path id="path27" class="st0" d="m194.9 175c-4.6 3.7-9 5.7-13.1 8.2-2.1 1.2-4.3 2-6.6 3-2.3 0.8-4.5 1.5-6.8 1.7-4.6 0.5-9.4-0.3-14.1-1.9-1.9-0.6-3.8-1.4-5.7-2.3 1.9-0.7 3.8-1.6 5.7-2.7 2.4-1.4 4.6-3.1 6.3-5.4s2.3-5.1 1.8-7.7c-0.2 2.6-1.4 4.9-3.2 6.4s-4 2.5-6.4 3.1c-2.3 0.7-4.7 1-7.1 1.2s-4.9 0.2-7.2 0l-11.3-0.9 9.2 7.9c4.9 3.5 9.8 6.1 15.3 8s11.5 3 17.6 2.4c6.3-0.7 11.8-2.8 16.8-6.2 4.9-3.1 8.6-8.8 8.8-14.8z"/>
	<path id="path28" class="st0" d="m32.7 89.2c0.8-1.5 1.6-2.9 2.5-4 0.1-0.1 0.2-0.2 0.2-0.3l0.3 0.6c0.3 0.6 0.6 1.2 0.9 1.7 0.7 1.1 1.4 2.1 2.2 3 3.2 3.8 7 6.4 10.8 8.6 7.7 4.3 15.7 6.7 23.7 8.6 8 1.8 16 3 24 3.8s16 1 24.1 1c4.3 0 7.4-0.2 10.7 0.2 3.3 0.3 6.4 1 9.5 2 6.3 1.9 12 5.3 18.5 9.6 1.7 1.1 3.4 2.2 5.4 3.4 2 1.1 4.4 2.4 7.8 3.3 1.7 0.4 3.7 0.7 6 0.4l0.8-0.1h0.5c0.2 0 0.4-0.1 0.7 0 1.2 0 2.6 0.1 4.1 0.4 6.2 0.9 12.9 3.6 18.9 6.8 3 1.6 5.9 3.4 8.7 5.4 2.7 2.1 5.1 4.3 7.3 6.6 4 4.6 6.5 10.3 6.7 16.5 0.3 6.1-1.7 12.7-5.5 18.1-0.9 1.3-2.1 2.8-3 3.8-0.9 0.9-1.9 1.8-3.3 2.5-2.6 1.3-6 2.2-9.5 2.6-7.2 0.9-14.9 0.3-22.8-0.4 6.7 4.4 14.4 7.3 22.8 8.4 4.2 0.4 8.7 0.4 13.4-1.3 2.3-0.8 4.6-2 6.6-3.6 1.9-1.6 3.4-3.1 4.9-4.8 4.4-5.1 7.8-11.3 9.4-18.1 3.1 2.5 6.1 5.2 8.8 8.1 1.6 1.7 3 3.4 4.2 5.1s2.1 3.7 2 4.7l-0.9 7.1 7.3-5c4.6-4.3 8.7-9.3 11.3-15.3 2.6-5.9 3.3-12.8 1.6-18.9-1.6-6.1-4.9-11.5-8.7-16-3.9-4.6-8.4-8.5-13.3-11.8 4.5 3.8 8.5 8.2 11.8 13 3.2 4.8 5.7 10.1 6.4 15.6 0.8 5.5-0.4 10.9-3 15.5-2 3.4-4.7 6.4-7.8 9.1-0.8-0.8-1.5-1.5-2.3-2.1-2-1.6-4-3-6.1-4.2-3.6-2.1-7.3-3.9-11.1-5.5 0.5-2 0.8-4.1 0.9-6.2 0.7-9.5-2.6-19.2-8.2-26.8-5.4-7.5-12.5-13-19.8-17.5-7.5-4.4-15.5-7.7-24.6-9.4-2.3-0.4-4.8-0.7-7.5-0.7-0.6 0-1.5 0.1-2.2 0.1l-1.1 0.1h-0.2c-0.4-0.1-1.6-0.5-2.9-1.3-1.4-0.8-2.9-1.7-4.5-2.8-6.5-4.2-14.3-8.9-23-11.5-4.3-1.3-8.8-2.2-13.3-2.5-4.5-0.4-9.2-0.1-12.7 0.1-7.5 0.4-15.1 0.3-22.6 0.1s-15-0.8-22.3-1.9-14.5-2.7-20.6-5.5c-3.1-1.4-5.9-3.1-7.9-5.1-0.5-0.5-1-1-1.4-1.6-0.2-0.3-0.4-0.6-0.6-0.8-0.2-0.3-0.3-0.4-0.7-1.2-0.8-1.2-1.7-2.6-3.5-4-1.7-1.4-4.9-2.2-7.2-1.4-2.3 0.6-3.7 1.7-4.8 2.7s-1.9 2.1-2.6 3.1c-1.4 2.1-2.3 4.1-3.1 6.2-1.5 4.1-2.4 8.3-2.9 12.5-0.4 4.2-0.3 8.5 0.5 12.7s2.4 8.4 5 11.9 6.4 6 10.4 7.2 8.1 1.2 11.9 0.6c-3.9-0.4-7.7-1.2-11-3-3.3-1.7-5.8-4.3-7.3-7.4-3.1-6.2-2.9-13.7-1.3-20.6 0.8-3.8 2-7.2 3.6-10.2zm144.7 23.5h0.1zm-140.7-28.9c0.2-0.2 0.3-0.2 0 0z"/>
	<path id="path29" class="st0" d="m350.4 37.1c-0.7-1.2-1.6-2.4-2.8-3.7-0.7-0.6-1.4-1.3-2.8-2.1-0.4-0.2-0.9-0.4-1.3-0.6s-1.6-0.4-2.4-0.4c-0.5 0-0.7 0-1.5 0.1-0.7 0.2-1.4 0.4-2.1 0.8-1.4 0.8-2.1 1.6-2.7 2.6-0.3 0.5-0.6 1-0.8 1.6l-0.5 0.7c-0.5 0.6-1 1.1-1.6 1.8-5.1 5-11.9 9.5-18.9 13.3s-14.4 7.1-21.9 10c-1.9 0.7-3.8 1.3-5.7 2-0.9 0.3-2.1 0.8-3.2 1.3l-3.4 1.5c-4.4 2.2-8.5 5.4-11.8 9-1.6 1.8-3 3.9-4.3 5.9-1.1 2.2-2.2 4.3-3.1 6.4-1.6 4.4-2.8 8.8-3.4 13.2-1.3 8.8-1.6 17.2-1.4 25.7-0.1-4.2 0.2-8.5 1.2-12.6 0.9-4.1 2.4-8.1 4.4-11.7 4-7.3 9.5-13.3 15.6-17.1 3-1.9 6.1-3.6 9.3-4.8l2.4-0.9c0.8-0.3 1.6-0.6 2.7-1 2.1-0.8 4.1-1.5 6.2-2.3 8.2-3.1 16.3-6.9 23.9-11.5 3.9-2.2 7.6-4.8 11.2-7.5 3.5-2.7 6.9-5.5 10.1-9.1 0.8 1.7 1.3 3.6 1.6 5.4 1 6.5-1.4 13.5-6.1 19.5-4.8 6-11.3 11.1-18.3 15.4l-0.2 0.1c-1.2 0.9-2.9 1.6-4.8 2.1-1.8 0.5-3.8 0.9-5.7 1.1-3.9 0.5-8 0.7-12.1 0.7 4 1 8 1.8 12.2 2.1 2.1 0.2 4.2 0.2 6.4 0s4.4-0.5 6.7-1.6l-0.2 0.1c8-3.3 16-7.4 22.7-14 3.3-3.3 6.3-7.2 8.4-11.7s3.1-9.7 2.8-14.9c-0.6-5.1-1.9-10.2-4.8-14.9z"/>
	<path id="path30" class="st0" d="m333.8 35.4"/>
	<path id="path31" class="st0" d="m319.5 136.3c-4.1 1.7-8.8 2.4-13.5 2.9-2.4 0.1-4.9 0.4-7.1 0.5-2.3 0.1-4.6 0-6.9-0.1l-3.5-0.3c-1-0.1-2.2-0.3-3.3-0.6l-7.5-2c1.4 2.4 3.2 4.3 5.4 6.1 1.1 0.9 2.3 1.7 3.7 2.3s2.6 1 4 1.4c2.7 0.7 5.4 1.1 8.2 1.1 1.4 0 2.8-0.1 4.1-0.2s2.6-0.2 4-0.4c5.3-0.9 10.7-2.5 15.4-5.8 2.3-1.8 4.4-4 5.4-6.8 0.7-1.9 1-3.9 0.6-5.7 1.5-0.5 3.1-1 4.6-1.8 4.1-2 7.9-5 10.4-9 2.4-4 3.7-8.4 3.8-12.7 0.2-4.3-0.3-8.4-1.4-12.4-1-4-2.5-7.7-4.5-11.2 1.5 7.8 2 15.8 0.6 22.9-0.8 3.6-2.1 6.8-4.2 9.4-2.1 2.5-4.7 4.5-7.9 5.7s-6.6 1.9-10.3 2.1c-1.8 0.2-3.6 0.1-5.6 0.2h-5.9c-7.9 0.2-15.8 1.1-23.7 4.2 7.9 3.1 15.8 4 23.7 4.2 5.8 0 12.4 0.2 18.9-1.4-0.5 1.4-1.3 2.6-2.2 3.7-1.5 1.6-3.3 2.8-5.3 3.7z"/>
	<path id="path32" class="st0" d="m282.9 181.7c-0.5 0.4-1.4 0.5-2.4 0.4-1.9-0.2-4-1-6.1-1.9 1.5 1.7 3.2 3.2 5.5 4.1 1.1 0.5 2.6 0.7 4.1 0.2 1.5-0.4 2.8-1.7 3.3-2.9 1.2-2.6 1.5-4.8 1.5-7.4 0-1.3-0.2-2.7-0.8-4.1s-1.7-2.7-2.9-3.6c0 0-0.1 0-0.1-0.1 1.3-0.5 2.7-1.1 4-1.9 2-1.2 4.3-2.6 5.5-5.2 0.6-1.3 0.7-2.8 0.3-4s-1.1-2.2-1.9-3c0.5 2.3 0.3 4.3-0.9 5.5s-3 2-4.9 2.6c-1.9 0.7-3.9 1.2-6.2 2-0.6 0.3-1.1 0.4-2.2 1.2l-0.5 0.5c-0.2 0.2-0.3 0.3-0.5 0.8-0.2 0.4-0.3 0.8-0.3 1.3 0 0.4 0.2 1.2 0.3 1.2 0.3 0.7 0.8 1.2 1.2 1.5 1.6 1.2 2.4 1.3 3 1.8 1.1 0.7 1.7 1.8 1.9 3.7 0.2 1.8 0.2 4-0.3 5.5 0.3 1 0 1.5-0.6 1.8z"/>
	<path id="path33" class="st0" d="m243.7 115.1c-0.1 0-0.2 0.1-0.3 0.1-0.1 0.1-0.6 0.2-0.9 0.3-0.7 0.2-1.3 0.4-2 0.7-2.7 1-5.4 2.3-8 4.5-1.2 1.1-2.5 2.5-3.1 4.5s0.2 4 1.4 4.9c0.1-1.6 0.8-2.7 1.6-3.2 0.9-0.5 1.8-0.9 3-1.2l7.5-1.9c0.7-0.2 1.3-0.4 2-0.6 0.4-0.1 0.6-0.1 1.1-0.4 0.5-0.2 1.1-0.5 1.6-0.7 2.1-1.2 3.7-3.2 4.4-5.3 1.3-4.1 0.8-7.9-1.3-11.4-1.1-1.7-3-3.6-5.8-4.1-0.7-0.2-1.3-0.2-2-0.1s-1.3 0.2-1.8 0.4-1.1 0.5-1.5 0.7l-0.7 0.4c-2 1.2-4.6 1.9-7.1 2.8-5.2 1.5-10.6 2.8-16.1 4.3 5.6 0.9 11.3 1.2 17.1 0.7 2.9-0.2 5.8-0.7 8.9-1.8l1.2-0.5c0.3-0.1 0.3 0 0.4-0.1s0.2 0 0.2 0h0.1s0.3 0.2 0.6 0.9c0.6 1.4 0.8 3.6 0.2 4.7-0.1 1-0.4 1.2-0.7 1.4z"/>
	<path id="path34" class="st0" d="m209.1 106.8c10.1 1.8 20.7-0.4 29-6 8.3-5.5 14.7-13.9 17.6-23.7 1.4-4.9 2-10.2 1.4-15.4s-2.3-10.4-4.9-15c-5.2-9.3-14.4-16.7-25.2-19.8-10.8-3.2-23.2-1.4-32.7 4.9-4.7 3.2-8.9 7.3-12 12s-5.2 10.1-6.2 15.6c-2 11 0.9 22.5 7.1 31.2 6.1 8.7 15.8 14.5 25.9 16.2zm-20.9-44.7c2.2-7.6 7.2-14.1 13.8-18 6.5-4 14.3-5.7 22.1-4.6 7.9 1 15.4 5.4 20.4 12.2 5 6.7 7.3 15.6 6.1 24.4s-6.6 17.1-14.4 21.9c-3.9 2.3-8.2 3.9-12.7 4.5-4.4 0.6-9 0.3-13.2-0.9-8.5-2.4-15.6-8.4-19.6-15.8-4-7.5-4.7-16.1-2.5-23.7z"/>
	<path id="path35" class="st0" d="m63.1 158c4.2 3.2 9 5.2 13.8 6.4s9.7 1.7 14.6 1.5c-4.8-0.7-9.4-2-13.7-4-4.3-1.9-8.2-4.5-11.1-7.8-3-3.2-4.7-7.2-5.4-11.2-0.3-2.1-0.4-4.2-0.2-6.3 2.1 0.7 4.4 1.3 6.5 1.9 2.2 0.6 4.5 1 6.7 1.5 2.3 0.3 4.6 0.8 6.9 0.9 4.6 0.4 9.3 0.2 13.8-0.8 4.4-1 8.9-3 11.7-6.4-3.4 2.8-7.9 3.7-12.1 3.8s-8.4-0.6-12.5-1.8c-2-0.5-4-1.4-6-2-1.9-0.9-3.9-1.6-5.8-2.6s-3.8-1.9-5.6-3l-11.5-6.9-1.5 7.6c-0.3 5.3 0.2 10.9 2 16.1 1.8 5.3 5.2 10 9.4 13.1z"/>
	<path id="path36" class="st0" d="m102.7 164.6c1.9-0.2 3.8-0.5 5.7-1s3.8-1.1 5.5-2 3.3-2.4 3.8-4.1c-1.2 1.5-2.9 2-4.5 2.3-1.7 0.2-3.4 0.2-5.1 0s-3.4-0.6-5.1-1c-1.6-0.4-3.4-1-4.8-1.6h-4.7l0.1 3.6c0.1 4.3 0.8 8.7 2.8 12.8s5.4 7.5 9.3 9.2c3.9 1.8 8 2.4 12 2.4s7.9-0.6 11.7-1.6c-3.9 0.4-7.8 0.3-11.5-0.3s-7.4-1.8-10.3-3.8-4.8-4.8-5.8-8c-0.6-2.1-0.8-4.4-0.7-6.6 0.5-0.2 1.1-0.3 1.6-0.3z"/>
	<path id="path37" class="st0" d="m415.4 691.1c1.7-1 3-2.3 4-4s1.5-3.5 1.5-5.6c0-2-0.5-3.9-1.5-5.6s-2.3-3-4-4-3.5-1.5-5.6-1.5h-14.3v39.6h4.5v-17.5h9.8c2 0 3.9-0.5 5.6-1.4zm-15.4-2.8v-13.4h9.4c2 0 3.7 0.6 5 1.9s2 2.9 2 4.9c0 2.1-0.7 3.7-2 4.9s-3 1.8-5 1.8h-9.4z"/>
	<path id="path38" class="st0" d="m482.5 686.5c0.8-1.5 1.2-3.1 1.2-4.9 0-2-0.5-3.9-1.5-5.6s-2.3-3-4-4-3.6-1.5-5.6-1.5h-14.3v39.5h4.5v-17.8h6.9l11.2 17.8h5.3l-11.6-18c1.7-0.2 3.3-0.9 4.6-1.8 1.4-1 2.5-2.2 3.3-3.7zm-5.3-0.3c-1.3 1.2-2.9 1.8-4.9 1.8h-9.5v-13h9.5c2 0 3.6 0.6 4.9 1.8s2 2.8 2 4.7-0.7 3.5-2 4.7z"/>
	<path id="path39" class="st0" d="m560.4 700.5c1.8-3.1 2.7-6.5 2.7-10.2s-0.9-7.1-2.7-10.2-4.3-5.6-7.4-7.4-6.5-2.7-10.2-2.7-7.1 0.9-10.2 2.7-5.6 4.3-7.4 7.4-2.7 6.5-2.7 10.2 0.9 7.1 2.7 10.2 4.3 5.6 7.4 7.4 6.5 2.7 10.2 2.7 7.1-0.9 10.2-2.7c3.1-1.9 5.6-4.3 7.4-7.4zm-17.6 5.6c-2.9 0-5.5-0.7-7.9-2.1s-4.3-3.3-5.7-5.8c-1.4-2.4-2.1-5.1-2.1-8s0.7-5.5 2.1-8c1.4-2.4 3.3-4.3 5.7-5.8 2.4-1.4 5.1-2.1 7.9-2.1s5.5 0.7 8 2.1c2.4 1.4 4.3 3.3 5.8 5.8 1.4 2.4 2.1 5.1 2.1 8s-0.7 5.5-2.1 8c-1.4 2.4-3.3 4.3-5.8 5.8-2.5 1.4-5.1 2.1-8 2.1z"/>
	<path id="path40" class="st0" d="m630.8 700.2c1.8-3 2.7-6.3 2.7-9.9s-0.9-6.9-2.7-9.9-4.2-5.4-7.2-7.2-6.3-2.7-9.9-2.7h-10.9v39.5h10.9c3.6 0 6.9-0.9 9.9-2.7 3.1-1.7 5.5-4.1 7.2-7.1zm-17.1 5.3h-6.4v-30.5h6.4c2.8 0 5.4 0.7 7.8 2 2.3 1.3 4.2 3.1 5.5 5.5 1.4 2.3 2 4.9 2 7.8s-0.7 5.5-2 7.8-3.2 4.2-5.5 5.5c-2.4 1.3-5 1.9-7.8 1.9z"/>
	<path id="path41" class="st0" d="m698.4 696.3c0 1.9-0.4 3.5-1.3 5s-2.1 2.6-3.7 3.5c-1.6 0.8-3.4 1.3-5.4 1.3s-3.8-0.4-5.4-1.3c-1.6-0.8-2.8-2-3.7-3.5s-1.3-3.1-1.3-5v-25.8h-4.6v26.6c0 2.6 0.6 4.9 1.9 6.9 1.3 2.1 3.1 3.7 5.3 4.8 2.3 1.2 4.8 1.7 7.7 1.7 2.8 0 5.4-0.6 7.7-1.7 2.3-1.2 4.1-2.8 5.4-4.8 1.3-2.1 1.9-4.4 1.9-6.9v-26.6h-4.5z"/>
	<path id="path42" class="st0" d="m774.6 701.4c-1.4 1.4-3.1 2.6-5.1 3.4s-4 1.2-6 1.2c-2.9 0-5.5-0.7-8-2.1-2.4-1.4-4.3-3.3-5.8-5.7-1.4-2.4-2.1-5.1-2.1-8s0.7-5.6 2.1-8 3.3-4.3 5.8-5.7c2.4-1.4 5.1-2.1 8-2.1 2 0 4 0.4 6 1.2s3.7 2 5.1 3.4l3.2-3.2c-1.8-1.8-4-3.2-6.6-4.3s-5.2-1.6-7.8-1.6c-3.7 0-7.1 0.9-10.2 2.7s-5.6 4.3-7.4 7.4-2.7 6.5-2.7 10.2 0.9 7.1 2.7 10.2 4.3 5.6 7.4 7.4 6.5 2.7 10.2 2.7c2.6 0 5.1-0.5 7.8-1.6 2.6-1.1 4.8-2.5 6.6-4.3z"/>
	<polygon id="polygon42" class="st0" points="838.3 670.5 812 670.5 812 675 822.9 675 822.9 710 827.4 710 827.4 675 838.3 675"/>
	<rect id="rect42" class="st0" x="875.5" y="670.5" width="4.5" height="39.5"/>
	<path id="path43" class="st0" d="m950.4 672.7c-3.1-1.8-6.5-2.7-10.2-2.7s-7.1 0.9-10.2 2.7-5.6 4.3-7.4 7.4-2.7 6.5-2.7 10.2 0.9 7.1 2.7 10.2 4.3 5.6 7.4 7.4 6.5 2.7 10.2 2.7 7.1-0.9 10.2-2.7 5.6-4.3 7.4-7.4 2.7-6.5 2.7-10.2-0.9-7.1-2.7-10.2c-1.8-3.2-4.2-5.6-7.4-7.4zm3.5 25.5c-1.4 2.4-3.3 4.3-5.7 5.8-2.4 1.4-5.1 2.1-8 2.1s-5.5-0.7-7.9-2.1-4.3-3.3-5.7-5.8c-1.4-2.4-2.1-5.1-2.1-8s0.7-5.5 2.1-8c1.4-2.4 3.3-4.3 5.7-5.8 2.4-1.4 5.1-2.1 7.9-2.1 2.9 0 5.5 0.7 8 2.1 2.4 1.4 4.3 3.3 5.7 5.8 1.4 2.4 2.1 5.1 2.1 8s-0.6 5.6-2.1 8z"/>
	<polygon id="polygon43" class="st0" points="1028.8 710 1033 710 1033 670.5 1028.6 670.5 1028.6 702.5 1004.5 670.5 1000.2 670.5 1000.2 710 1004.7 710 1004.7 677.9"/>
	<path id="path44" class="st0" d="m1091.2 690.4c-1.4-0.8-3.3-1.7-5.6-2.7-1.9-0.8-3.4-1.5-4.5-2.1s-2-1.3-2.7-2.2-1.1-2-1.1-3.3c0-1.8 0.6-3.2 1.9-4.2s2.9-1.4 4.8-1.4c1.5 0 2.8 0.3 4 0.9s2.2 1.5 3 2.6l3.5-3c-1.2-1.5-2.7-2.7-4.5-3.6-1.9-0.9-3.9-1.4-6.1-1.4-2.1 0-4 0.4-5.6 1.3-1.7 0.9-3 2.1-4 3.7s-1.5 3.4-1.5 5.5 0.5 3.9 1.5 5.2c1 1.4 2.1 2.5 3.5 3.3s3.2 1.7 5.5 2.6c1.9 0.8 3.5 1.5 4.6 2.1s2.1 1.4 2.8 2.4c0.8 1 1.1 2.2 1.1 3.6 0 2-0.7 3.5-2.2 4.7-1.5 1.1-3.3 1.7-5.5 1.7-2.1 0-3.9-0.5-5.5-1.6s-2.7-2.5-3.4-4.4l-4.1 2.4c1.1 2.5 2.7 4.4 5.1 5.9 2.3 1.5 5 2.2 7.9 2.2 2.3 0 4.3-0.4 6.2-1.3 1.8-0.9 3.3-2.2 4.4-3.8 1.1-1.7 1.6-3.6 1.6-5.9s-0.5-4.2-1.5-5.7-2.2-2.7-3.6-3.5z"/>
	<path id="path45" class="st0" d="m421 761c1.4-1 2.5-2.2 3.2-3.7s1.2-3.1 1.2-4.9c0-2-0.5-3.9-1.5-5.6s-2.3-3-4-4-3.6-1.5-5.6-1.5h-14.3v39.5h4.5v-17.8h6.9l11.2 17.8h5.3l-11.6-18c1.8-0.2 3.4-0.8 4.7-1.8zm-16.4-2.2v-13h9.5c2 0 3.6 0.6 4.9 1.8s2 2.8 2 4.7-0.7 3.5-2 4.7-2.9 1.8-4.9 1.8z"/>
	<path id="path46" class="st0" d="m451.7 755.7c-2.1-1.2-4.4-1.8-6.8-1.8-2.5 0-4.8 0.6-6.9 1.8s-3.8 2.9-5 5-1.8 4.4-1.8 6.9 0.6 4.8 1.8 6.9 2.9 3.8 5 5 4.4 1.8 6.9 1.8c2.6 0 4.9-0.7 7-2s3.8-3.1 4.9-5.3l-4-1.6c-0.8 1.4-2 2.5-3.4 3.3s-2.9 1.2-4.6 1.2c-1.6 0-3.1-0.4-4.5-1.2s-2.5-1.8-3.4-3.1-1.3-2.8-1.5-4.4h23l0.1-0.9c0-2.5-0.7-4.8-1.9-6.8-1.1-1.9-2.8-3.6-4.9-4.8zm-15.6 8.7c0.7-1.8 1.8-3.3 3.4-4.4s3.4-1.7 5.4-1.7 3.8 0.6 5.4 1.7 2.7 2.6 3.3 4.4z"/>
	<polygon id="polygon46" class="st0" points="461.5 754.5 472 780.8 476.2 780.8 486.8 754.5 482.2 754.5 474.1 775.7 466.1 754.5"/>
	<rect id="rect46" class="st0" x="492.1" y="754.5" width="4.3" height="26.4"/>
	<path id="path47" class="st0" d="m494.2 743.7c-0.8 0-1.5 0.3-2.1 0.8-0.6 0.6-0.9 1.3-0.9 2.1s0.3 1.5 0.9 2 1.3 0.9 2.1 0.9 1.5-0.3 2.1-0.9 0.9-1.3 0.9-2c0-0.8-0.3-1.5-0.9-2.1-0.6-0.5-1.3-0.8-2.1-0.8z"/>
	<polygon id="polygon47" class="st0" points="501.7 754.5 512.2 780.8 516.4 780.8 527 754.5 522.3 754.5 514.3 775.7 506.3 754.5"/>
	<path id="path48" class="st0" d="m534.4 743.7c-0.8 0-1.5 0.3-2.1 0.8-0.6 0.6-0.9 1.3-0.9 2.1s0.3 1.5 0.9 2 1.3 0.9 2.1 0.9 1.5-0.3 2.1-0.9 0.9-1.3 0.9-2c0-0.8-0.3-1.5-0.9-2.1-0.6-0.5-1.3-0.8-2.1-0.8z"/>
	<rect id="rect48" class="st0" x="532.3" y="754.5" width="4.3" height="26.4"/>
	<path id="path49" class="st0" d="m561.5 755.2c-1.5-0.9-3-1.3-4.8-1.3-2.4 0-4.5 0.8-6.3 2.4v-1.8h-4.3v26.4h4.3v-17.3c0-1.5 0.6-2.9 1.7-3.9s2.5-1.6 4.1-1.6 2.9 0.6 4.1 1.7c1.1 1.1 1.7 2.5 1.7 4.1v17.1h4.3v-17.3c0-1.7-0.4-3.3-1.3-4.8-0.9-1.6-2-2.8-3.5-3.7z"/>
	<path id="path50" class="st0" d="m596.4 757.6c-1.2-1.2-2.7-2.1-4.3-2.7s-3.3-0.9-5.1-0.9c-2.5 0-4.8 0.6-6.9 1.8s-3.8 2.9-5 5-1.8 4.4-1.8 6.9 0.6 4.8 1.8 6.9 2.9 3.8 5 5 4.4 1.8 6.9 1.8c1.8 0 3.4-0.3 5.1-0.9 1.6-0.6 3-1.5 4.3-2.7v3.1c0 1.7-0.4 3.3-1.3 4.7-0.8 1.4-2 2.6-3.4 3.4s-3 1.3-4.7 1.3c-1.9 0-3.7-0.5-5.2-1.6-1.6-1.1-2.7-2.5-3.5-4.2l-3.6 2.4c1.1 2.3 2.8 4.2 5 5.6s4.7 2.1 7.3 2.1c2.5 0 4.8-0.6 6.9-1.8s3.8-2.9 5-5 1.8-4.4 1.8-6.9v-26.4h-4.4v3.1zm-1.2 14.8c-0.8 1.4-2 2.6-3.4 3.4s-3 1.3-4.7 1.3-3.3-0.4-4.7-1.3-2.6-2-3.4-3.4-1.3-3-1.3-4.7 0.4-3.3 1.3-4.7 2-2.6 3.4-3.4 3-1.3 4.7-1.3 3.3 0.4 4.7 1.3c1.4 0.8 2.6 2 3.4 3.4s1.3 3 1.3 4.7c0 1.6-0.4 3.2-1.3 4.7z"/>
	<polygon id="polygon50" class="st0" points="621.6 758.5 627.2 758.5 627.2 780.8 631.6 780.8 631.6 758.5 637.2 758.5 637.2 754.5 631.6 754.5 631.6 745 627.2 745 627.2 754.5 621.6 754.5"/>
	<path id="path51" class="st0" d="m658.7 755.2c-1.5-0.9-3-1.3-4.8-1.3-2.4 0-4.5 0.8-6.3 2.4v-17.7h-4.3v42.2h4.3v-17.3c0-1.5 0.6-2.9 1.7-3.9s2.5-1.6 4.1-1.6 2.9 0.6 4.1 1.7 1.7 2.5 1.7 4.1v17.1h4.3v-17.3c0-1.7-0.4-3.3-1.3-4.8s-2.1-2.7-3.5-3.6z"/>
	<path id="path52" class="st0" d="m691.1 755.7c-2.1-1.2-4.4-1.8-6.8-1.8-2.5 0-4.8 0.6-6.9 1.8s-3.8 2.9-5 5-1.8 4.4-1.8 6.9 0.6 4.8 1.8 6.9 2.9 3.8 5 5 4.4 1.8 6.9 1.8c2.6 0 4.9-0.7 7-2s3.8-3.1 4.9-5.3l-4-1.6c-0.8 1.4-2 2.5-3.4 3.3s-2.9 1.2-4.6 1.2c-1.6 0-3.1-0.4-4.5-1.2s-2.5-1.8-3.4-3.1-1.3-2.8-1.5-4.4h23l0.1-0.9c0-2.5-0.7-4.8-1.9-6.8-1.1-1.9-2.8-3.6-4.9-4.8zm-15.6 8.7c0.7-1.8 1.8-3.3 3.4-4.4s3.4-1.7 5.4-1.7 3.8 0.6 5.4 1.7 2.7 2.6 3.3 4.4z"/>
	<path id="path53" class="st0" d="m732.1 747.4c2.4-1.4 5.1-2.1 8-2.1 2 0 4 0.4 6 1.2s3.7 2 5.1 3.4l3.2-3.2c-1.8-1.8-4-3.2-6.6-4.3s-5.2-1.6-7.8-1.6c-3.7 0-7.1 0.9-10.2 2.7s-5.6 4.3-7.4 7.4-2.7 6.5-2.7 10.2 0.9 7.1 2.7 10.2 4.3 5.6 7.4 7.4 6.5 2.7 10.2 2.7c2.6 0 5.1-0.5 7.8-1.6 2.6-1.1 4.8-2.5 6.6-4.3l-3.2-3.2c-1.4 1.4-3.1 2.6-5.1 3.4s-4 1.2-6 1.2c-2.9 0-5.5-0.7-8-2.1-2.4-1.4-4.3-3.3-5.7-5.7s-2.1-5.1-2.1-8 0.7-5.6 2.1-8c1.3-2.4 3.2-4.3 5.7-5.7z"/>
	<rect id="rect53" class="st0" x="761.2" y="738.7" width="4.3" height="42.2"/>
	<path id="path54" class="st0" d="m796.3 758.3c-1.2-1.4-2.6-2.4-4.3-3.2s-3.6-1.1-5.6-1.1c-2.3 0-4.5 0.6-6.5 1.8s-3.6 2.9-4.9 5-1.8 4.4-1.8 6.9 0.6 4.7 1.8 6.9 2.8 3.8 4.9 5c2 1.2 4.2 1.8 6.5 1.8 2.1 0 4-0.4 5.6-1.1s3.1-1.8 4.3-3.2v3.8h4.3v-26.4h-4.3zm-1.3 14.1c-0.8 1.4-2 2.6-3.4 3.4s-3 1.3-4.7 1.3-3.3-0.4-4.7-1.3c-1.4-0.8-2.6-2-3.4-3.4s-1.3-3-1.3-4.7 0.4-3.3 1.3-4.7 2-2.6 3.4-3.4 3-1.3 4.7-1.3 3.3 0.4 4.7 1.3 2.6 2 3.4 3.4 1.3 3 1.3 4.7-0.4 3.3-1.3 4.7z"/>
	<path id="path55" class="st0" d="m821.3 767.5c-1-0.6-2.3-1.2-3.7-1.8-1.8-0.8-3.1-1.4-3.7-1.9-0.7-0.5-1-1.3-1-2.3 0-1.1 0.3-1.9 1-2.5s1.5-0.9 2.6-0.9c0.9 0 1.6 0.2 2.3 0.6s1.1 1 1.5 1.8l3.8-2c-0.5-1.3-1.5-2.4-2.8-3.2-1.4-0.8-2.9-1.2-4.6-1.2-2.3 0-4.2 0.7-5.7 2.1-1.6 1.4-2.3 3.2-2.3 5.5 0 2 0.6 3.6 1.8 4.8s3.1 2.3 5.6 3.3c1.8 0.7 3 1.3 3.7 1.9 0.7 0.5 1 1.3 1 2.2 0 1.1-0.4 2-1.2 2.7s-1.8 1-3.2 1c-2.2 0-3.8-1-4.8-3.1l-4.2 1.3c0.5 1.6 1.6 3 3.4 4.1s3.7 1.7 5.8 1.7c1.5 0 3-0.3 4.2-1s2.3-1.6 3.1-2.7c0.8-1.2 1.1-2.5 1.1-4s-0.4-2.7-1.1-3.7c-0.7-1.3-1.5-2.2-2.6-2.7z"/>
	<path id="path56" class="st0" d="m842.9 767.5c-1-0.6-2.3-1.2-3.7-1.8-1.8-0.8-3.1-1.4-3.7-1.9-0.7-0.5-1-1.3-1-2.3 0-1.1 0.3-1.9 1-2.5s1.5-0.9 2.6-0.9c0.9 0 1.6 0.2 2.3 0.6s1.1 1 1.5 1.8l3.8-2c-0.5-1.3-1.5-2.4-2.8-3.2-1.4-0.8-2.9-1.2-4.6-1.2-2.3 0-4.2 0.7-5.7 2.1-1.6 1.4-2.3 3.2-2.3 5.5 0 2 0.6 3.6 1.8 4.8s3.1 2.3 5.6 3.3c1.8 0.7 3 1.3 3.7 1.9 0.7 0.5 1 1.3 1 2.2 0 1.1-0.4 2-1.2 2.7s-1.8 1-3.2 1c-2.2 0-3.8-1-4.8-3.1l-4.2 1.3c0.5 1.6 1.6 3 3.4 4.1s3.7 1.7 5.8 1.7c1.5 0 3-0.3 4.2-1s2.3-1.6 3.1-2.7c0.8-1.2 1.1-2.5 1.1-4s-0.4-2.7-1.1-3.7c-0.7-1.3-1.6-2.2-2.6-2.7z"/>
	<path id="path57" class="st0" d="m855.4 743.7c-0.8 0-1.5 0.3-2.1 0.8-0.6 0.6-0.9 1.3-0.9 2.1s0.3 1.5 0.9 2 1.3 0.9 2.1 0.9 1.5-0.3 2.1-0.9 0.9-1.3 0.9-2c0-0.8-0.3-1.5-0.9-2.1-0.6-0.5-1.3-0.8-2.1-0.8z"/>
	<rect id="rect57" class="st0" x="853.2" y="754.5" width="4.3" height="26.4"/>
	<path id="path58" class="st0" d="m874.1 759.5c1.4-0.8 3-1.2 4.8-1.2 1.9 0 3.6 0.5 5.1 1.5s2.6 2.3 3.4 4l4-1.8c-1.1-2.4-2.8-4.3-5-5.8s-4.7-2.2-7.5-2.2c-2.5 0-4.8 0.6-6.9 1.8s-3.8 2.9-5 5-1.8 4.4-1.8 6.9 0.6 4.8 1.8 6.9 2.9 3.8 5 5 4.4 1.8 6.9 1.8c2.7 0 5.2-0.7 7.5-2.2 2.2-1.5 3.9-3.4 5-5.8l-4-1.8c-0.7 1.7-1.9 3-3.4 4s-3.2 1.5-5.1 1.5c-1.8 0-3.3-0.4-4.8-1.2-1.4-0.8-2.5-2-3.4-3.4-0.8-1.4-1.2-3-1.2-4.8s0.4-3.3 1.2-4.8c0.9-1.4 2-2.6 3.4-3.4z"/>
	<path id="path59" class="st0" d="m909.2 767.5c-1-0.6-2.3-1.2-3.7-1.8-1.8-0.8-3.1-1.4-3.7-1.9-0.7-0.5-1-1.3-1-2.3 0-1.1 0.3-1.9 1-2.5s1.5-0.9 2.6-0.9c0.9 0 1.6 0.2 2.3 0.6s1.1 1 1.5 1.8l3.8-2c-0.5-1.3-1.5-2.4-2.8-3.2-1.4-0.8-2.9-1.2-4.6-1.2-2.3 0-4.2 0.7-5.7 2.1-1.6 1.4-2.3 3.2-2.3 5.5 0 2 0.6 3.6 1.8 4.8s3.1 2.3 5.6 3.3c1.8 0.7 3 1.3 3.7 1.9 0.7 0.5 1 1.3 1 2.2 0 1.1-0.4 2-1.2 2.7s-1.8 1-3.2 1c-2.2 0-3.8-1-4.8-3.1l-4.2 1.3c0.5 1.6 1.6 3 3.4 4.1s3.7 1.7 5.8 1.7c1.5 0 3-0.3 4.2-1s2.3-1.6 3.1-2.7c0.8-1.2 1.1-2.5 1.1-4s-0.4-2.7-1.1-3.7c-0.7-1.3-1.5-2.2-2.6-2.7z"/>
</g>
</svg>
